<svg xmlns="http://www.w3.org/2000/svg" xmlns:osb="http://www.openswatchbook.org/uri/2009/osb" xmlns:svg="http://www.w3.org/2000/svg" xmlns:xlink="http://www.w3.org/1999/xlink" id="svg2" width="38" height="24" version="1.1"><defs id="defs4"><linearGradient id="linearGradient3248"><stop id="stop3250" offset="0" stop-color="#f9f9f9" stop-opacity="1"/><stop id="stop3252" offset="1" stop-color="#fff" stop-opacity="1"/></linearGradient><linearGradient id="linearGradient3242"><stop id="stop3244" offset="0" stop-color="#4ed164" stop-opacity="1"/><stop id="stop3246" offset="1" stop-color="#4dd863" stop-opacity="1"/></linearGradient><linearGradient id="linearGradient3230"><stop id="stop3232" offset="0" stop-color="#4db866" stop-opacity="1"/><stop id="stop3234" offset="1" stop-color="#57bf70" stop-opacity="1"/></linearGradient><linearGradient id="linearGradient3188"><stop id="stop3190" offset="0" stop-color="#6cc27a" stop-opacity="1"/><stop id="stop3192" offset="1" stop-color="#9db9a2" stop-opacity="1"/></linearGradient><linearGradient id="linearGradient3168"><stop id="stop3170" offset="0" stop-color="#67c176" stop-opacity="1"/><stop id="stop3172" offset="1" stop-color="#67c176" stop-opacity="1"/></linearGradient><linearGradient id="linearGradient3823"><stop id="stop3825" offset="0" stop-color="#57c431" stop-opacity="1"/><stop id="stop3827" offset="1" stop-color="#35791e" stop-opacity="1"/></linearGradient><linearGradient id="linearGradient3801"><stop id="stop3803" offset="0" stop-color="#264385" stop-opacity="1"/><stop id="stop3805" offset="1" stop-color="#6888cc" stop-opacity="1"/></linearGradient><linearGradient id="linearGradient3797"><stop id="stop3799" offset="0" stop-color="#465e94" stop-opacity="1"/><stop id="stop3801" offset="1" stop-color="#5b5b5b" stop-opacity="1"/></linearGradient><linearGradient id="linearGradient3804" osb:paint="solid"><stop id="stop3806" offset="0" stop-color="#000" stop-opacity="1"/></linearGradient><linearGradient id="linearGradient3776"><stop id="stop3778" offset="0" stop-color="#102951" stop-opacity="1"/><stop id="stop3780" offset="1" stop-color="#1a4385" stop-opacity="1"/></linearGradient><linearGradient id="linearGradient3768"><stop id="stop3770" offset="0" stop-color="#000" stop-opacity=".649"/><stop id="stop3772" offset="1" stop-color="#000" stop-opacity="0"/></linearGradient><linearGradient id="linearGradient3769"><stop id="stop3771" offset="0" stop-color="#cdcdcd" stop-opacity="1"/><stop id="stop3773" offset="1" stop-color="#fcfcfc" stop-opacity="1"/></linearGradient><linearGradient id="linearGradient3759"><stop id="stop3761" offset="0" stop-color="#3270fc" stop-opacity="1"/><stop id="stop3763" offset="1" stop-color="#9abbfd" stop-opacity="1"/></linearGradient><linearGradient id="linearGradient3765" x1="25" x2="25" y1="1033.362" y2="1051.362" gradientTransform="matrix(1.037037,0,0,1.1111111,-1.037037,-115.81801)" gradientUnits="userSpaceOnUse" xlink:href="#linearGradient3759"/><linearGradient id="linearGradient3775" x1="44.441" x2="44.441" y1="10.434" y2="17.121" gradientUnits="userSpaceOnUse" xlink:href="#linearGradient3769"/><linearGradient id="linearGradient5149" x1="35" x2="35" y1="3" y2="38" gradientTransform="translate(-2,0)" gradientUnits="userSpaceOnUse" xlink:href="#linearGradient4071-3"/><linearGradient id="linearGradient4071-3"><stop id="stop4073-8" offset="0" stop-color="#000" stop-opacity="1"/><stop id="stop4075-4" offset="1" stop-color="#000" stop-opacity="0"/></linearGradient><linearGradient id="linearGradient3950" x1="35" x2="35" y1="3" y2="38" gradientTransform="matrix(1.8666667,0,0,1.25,-35.466667,1028.6122)" gradientUnits="userSpaceOnUse" xlink:href="#linearGradient4071-3"/><linearGradient id="linearGradient5147" x1="35" x2="35" y1="3" y2="26" gradientTransform="translate(19,-18.0625)" gradientUnits="userSpaceOnUse" xlink:href="#linearGradient4071-3-6"/><linearGradient id="linearGradient4071-3-6"><stop id="stop4073-8-9" offset="0" stop-color="#000" stop-opacity="1"/><stop id="stop4075-4-4" offset="1" stop-color="#292929" stop-opacity="0"/></linearGradient><linearGradient id="linearGradient3967" x1="35" x2="35" y1="3" y2="26" gradientTransform="matrix(1.8666667,0,0,1.2499978,-35.466667,1028.6122)" gradientUnits="userSpaceOnUse" xlink:href="#linearGradient4071-3-6"/><linearGradient id="linearGradient3803" x1="39.75" x2="49.25" y1="14" y2="14" gradientUnits="userSpaceOnUse" xlink:href="#linearGradient3797"/><linearGradient id="linearGradient3051" x1="25" x2="25" y1="1033.362" y2="1051.362" gradientTransform="matrix(1.037037,0,0,1.1111111,-1.037037,-115.81801)" gradientUnits="userSpaceOnUse" xlink:href="#linearGradient3759"/><linearGradient id="linearGradient3053" x1="35" x2="35" y1="3" y2="38" gradientTransform="matrix(1.8666667,0,0,1.25,-35.466667,1028.6122)" gradientUnits="userSpaceOnUse" xlink:href="#linearGradient4071-3"/><linearGradient id="linearGradient3055" x1="35" x2="35" y1="3" y2="26" gradientTransform="matrix(1.8666667,0,0,1.2499978,-35.466667,1028.6122)" gradientUnits="userSpaceOnUse" xlink:href="#linearGradient4071-3-6"/><linearGradient id="linearGradient3058" x1="35" x2="35" y1="3" y2="38" gradientTransform="matrix(1.8666667,0,0,1.2430867,-30.466667,1049.633)" gradientUnits="userSpaceOnUse" xlink:href="#linearGradient4071-3"/><linearGradient id="linearGradient3226" x1="33" x2="33" y1="1049.362" y2="1033.362" gradientTransform="matrix(0.98751541,0,0,1.0003212,-24.74165,-1.3344598)" gradientUnits="userSpaceOnUse" xlink:href="#linearGradient3242"/><linearGradient id="linearGradient3228" x1="27.909" x2="27.909" y1="1050.725" y2="1031.777" gradientTransform="matrix(0.96988182,0,0,0.95030703,-24.159744,50.854188)" gradientUnits="userSpaceOnUse" xlink:href="#linearGradient3230"/><linearGradient id="linearGradient3254" x1="43.321" x2="43.321" y1="16.512" y2="9.942" gradientUnits="userSpaceOnUse" xlink:href="#linearGradient3248"/></defs><metadata id="metadata7"/><g id="layer1" transform="translate(0,-1028.3622)"><flowRoot id="flowRoot3844" fill="#000" fill-opacity="1" stroke="none" font-family="Sans" font-size="10" font-style="normal" font-weight="bold" letter-spacing="0" word-spacing="0" xml:space="preserve" style="line-height:125%;-inkscape-font-specification:Sans Bold"><flowRegion id="flowRegion3846"><rect id="rect3848" width="17.595" height="12.092" x="9.123" y="4.07"/></flowRegion><flowPara id="flowPara3850"/></flowRoot><path id="rect2989" fill="url(#linearGradient3226)" fill-opacity="1" stroke="url(#linearGradient3228)" stroke-miterlimit="4" stroke-width=".994" d="m 12.695768,1030.8591 12.608464,0 c 5.373146,0 9.698819,4.2384 9.698819,9.5031 0,5.2647 -4.325673,9.5031 -9.698819,9.5031 l -12.608464,0 c -5.373146,0 -9.698819,-4.2384 -9.698819,-9.5031 0,-5.2647 4.325673,-9.5031 9.698819,-9.5031 z"/><path id="path3198" fill="#000" fill-opacity="1" stroke="none" d="m 49,14 c 0,2.209139 -2.014719,4 -4.5,4 -2.485281,0 -4.5,-1.790861 -4.5,-4 0,-2.209139 2.014719,-4 4.5,-4 2.485281,0 4.5,1.790861 4.5,4 z" opacity=".05" transform="matrix(2.2222222,0,0,2.5,-73.388888,1007.3622)"/><path id="path3204" fill="#000" fill-opacity="1" stroke="none" d="m 49,14 c 0,2.209139 -2.014719,4 -4.5,4 -2.485281,0 -4.5,-1.790861 -4.5,-4 0,-2.209139 2.014719,-4 4.5,-4 2.485281,0 4.5,1.790861 4.5,4 z" opacity=".05" transform="matrix(2.2222222,0,0,2.5,-73.388888,1006.8622)"/><path id="path3200" fill="#000" fill-opacity="1" stroke="none" d="m 49,14 c 0,2.209139 -2.014719,4 -4.5,4 -2.485281,0 -4.5,-1.790861 -4.5,-4 0,-2.209139 2.014719,-4 4.5,-4 2.485281,0 4.5,1.790861 4.5,4 z" opacity=".05" transform="matrix(2.2222222,0,0,2.5,-73.388888,1006.3622)"/><path id="path3202" fill="#000" fill-opacity="1" stroke="none" d="m 49,14 c 0,2.209139 -2.014719,4 -4.5,4 -2.485281,0 -4.5,-1.790861 -4.5,-4 0,-2.209139 2.014719,-4 4.5,-4 2.485281,0 4.5,1.790861 4.5,4 z" opacity=".05" transform="matrix(2.2222222,0,0,2.5,-73.388888,1005.8622)"/><path id="path3196" fill="#000" fill-opacity="1" stroke="none" d="m 49,14 c 0,2.209139 -2.014719,4 -4.5,4 -2.485281,0 -4.5,-1.790861 -4.5,-4 0,-2.209139 2.014719,-4 4.5,-4 2.485281,0 4.5,1.790861 4.5,4 z" opacity=".1" transform="matrix(2.2222222,0,0,2.5,-73.388888,1005.3622)"/><path id="path3767" fill="url(#linearGradient3254)" fill-opacity="1" stroke="none" d="m 49,14 c 0,2.209139 -2.014719,4 -4.5,4 -2.485281,0 -4.5,-1.790861 -4.5,-4 0,-2.209139 2.014719,-4 4.5,-4 2.485281,0 4.5,1.790861 4.5,4 z" transform="matrix(2,0,0,2.25,-63.5,1008.8622)"/><path id="path3035" fill="#fff" stroke="none" d="m 10.46049,1037.8227 0,5.079"/><rect id="rect3147" width="1" height="6" x="10" y="1037.362" fill="#fff" fill-opacity="1" stroke="none" opacity=".05" rx="0" ry="0"/></g></svg>