<svg xmlns="http://www.w3.org/2000/svg" xmlns:svg="http://www.w3.org/2000/svg" id="svg11300" width="24" height="24" display="inline" enable-background="new" version="1.0"><metadata id="metadata4"/><g id="layer1" display="inline" transform="translate(0,-276)"><path id="rect3005" fill="#323232" fill-opacity="1" stroke="none" d="M 2 0 C 0.892 0 3.0947467e-18 0.892 0 2 L 0 22 C 0 23.108 0.892 24 2 24 L 22 24 C 23.108 24 24 23.108 24 22 L 24 2 C 24 0.892 23.108 3.0947467e-18 22 0 L 2 0 z M 3 1 L 21 1 C 22.108 1 23 1.892 23 3 L 23 21 C 23 22.108 22.108 23 21 23 L 3 23 C 1.892 23 1 22.108 1 21 L 1 3 C 1 1.892 1.892 1 3 1 z" opacity=".3" transform="translate(0,276)"/><rect id="rect3003" width="22" height="22" x="1" y="1" fill="#141414" fill-opacity="1" stroke="none" opacity=".85" rx="2" ry="2" transform="translate(0,276)"/></g></svg>